<svg xmlns="http://www.w3.org/2000/svg" viewBox="0 0 543.98 210.4"><defs><style>.cls-1{fill:#da7932;stroke-width:2.12px;}.cls-1,.cls-3,.cls-4{stroke:#da7932;stroke-miterlimit:10;}.cls-2,.cls-3,.cls-4{fill:none;}.cls-3{stroke-width:0.94px;}.cls-4{stroke-width:1.04px;}</style></defs><title>comilona</title><g id="Capa_2" data-name="Capa 2"><text x="-118.4" y="-132.05"></text><path class="cls-1" d="M143.14,242.67c-.59-44.21,51-59.35,87.33-55.58,12.8,1.33,28.94,7.07,29.07,21.64.14,15.86-18.45,27.62-33.63,25.31-10.56-1.61-18.41-6.67-18.41-13.93,0-5.06,1.05-6.62,1.05-6.62s2.45,2.39,9.29,3.5c10.88,1.78,17.19-3.89,17.19-9.91,0-5.06-2.5-8.29-13-9.83-22.46-3.32-56.93,16.36-57.26,40.19-.2,14.89,10.84,28.09,24.68,33.15,10.52,3.85,21.08-3.25,20.82-14.33v-.82c9.55,1.5,18.86,8.16,18.77,18.51-.19,22.44-27.76,28.77-45.17,23C161,289.45,143.46,266.71,143.14,242.67Z" transform="translate(-118.4 -132.05)"/><path class="cls-1" d="M232.93,283.39c.39-20,19.13-35.81,37.07-40.85l1.57-.23,1.91.14a20,20,0,0,1,6.42-1.91c12.13-1.17,16.4,3.67,16.4,11.46,0,11.49-7.06,22.77-7.06,22.91l.52-.21c4.66-.62,6.89-5.66,6.89-5.66,3.09-.49,4.63-.75,7.71-1.32-3.73,9.27-10.68,18.55-21.34,19.7l-1.73.18c-6.81,8.46-16.59,14.93-27.68,15.16C242.32,303,232.71,295,232.93,283.39Zm37.42-.78c-6.79-4-9.76-11.23-9.76-18.07a18.47,18.47,0,0,1,.87-6.18c-4.36,5.17-6.81,11.43-6.81,16.36,0,5.34,2.8,9.53,10,9.27A13,13,0,0,0,270.35,282.61ZM284.23,259c0-4.65-1.9-7-5.19-6.72-5.72.53-9.38,5.77-9.38,11.24,0,4.65,3,8.78,9.21,10.8C282.68,268.61,284.23,263.34,284.23,259Z" transform="translate(-118.4 -132.05)"/><path class="cls-1" d="M348.72,277.73c.32-15.55,14.7-29,15.87-43.14.1-1.25-.17-2.82-3.58-1.86-2.39.67-7,5.11-10.07,11.14-4.76,10.12-11.67,22-11.94,33.27-.07,2.94.85,4.3.85,5.94l-.51,2.18c-.34.91-3.92,6-11.09,7.69-8,1.92-11.12-.31-10.92-4.34.83-16.6,20-31.91,21.84-46.82.19-1.55-1.32-2.62-3.58-1.82-9.07,3.19-16.49,15.12-20.3,24.59a27.68,27.68,0,0,0-1.54,9.77v3a14.64,14.64,0,0,1-.85,5.51c-1.54,4.29-7.48,15.21-17.28,16.72-6.53,1-9-2.82-8.79-6.86.77-16.56,16.48-32.27,21.8-48.54,1.71-5.4,4.27-8.76,11.09-10.28,3.92-.88,7.51.73,7.51,3.74,0,0,8-7.39,16.21-9.55,6.82-1.8,9.21.94,9.38,4.31,5.8-5.7,10.92-9.89,16.21-11.41,5.46-1.57,12.37-.24,12.11,6.19-.44,11-9,21.37-10.24,31-.15,1.19,1,1.89,3.58,1.15,4.78-1.39,9.55-12.1,9.55-12.1l8-2.35c-6,14.2-14.94,34-29.52,39C352.85,287.2,348.63,282,348.72,277.73Z" transform="translate(-118.4 -132.05)"/><path class="cls-1" d="M377,267c1-16,14.78-30.83,20.64-46.55,1.88-5.61,2.22-8.46,9-10.43,4.44-1.28,8.7-1,8.7,2.16l-.17.73C409,224,400,237.09,398.87,248.67c-.27,2.7,1.54,2.56,4.09,1.82,6.14-1.78,10.58-11.8,10.58-11.8,3.07-.87,4.61-1.31,7.68-2.16-5.73,14.68-14.82,33.82-29.86,39C382,278.69,376.64,273.38,377,267Zm26.27-65.16c.08-3.94,4.95-8.56,11.09-10.3,5.29-1.5,9.34.16,9.21,3.31-.16,4-5.12,8.66-11.09,10.36C407.23,206.69,403.24,205.16,403.31,201.82Z" transform="translate(-118.4 -132.05)"/><path class="cls-1" d="M405.87,260.73c1.12-26.06,28.25-48.85,29.17-75.55.14-4.09-1.36-7.86-4.61-10,0,0,4.95-5.3,10.41-6.68,9.9-2.5,13.73,1,13.48,7-1,23.3-24.91,44.26-26.79,65.85-.13,1.49.85,2.37,2.9,1.82,4.95-1.32,10.75-12,10.75-12,3.07-.77,4.61-1.15,7.68-1.89-6.06,14.32-15.36,33.36-30.2,38.28C410,270.49,405.65,265.7,405.87,260.73Z" transform="translate(-118.4 -132.05)"/><path class="cls-1" d="M438.62,243.91c.83-20.58,17.44-41.61,36.16-49.52l1.53-.42,1.87-.07a19.17,19.17,0,0,1,6.26-2.47c11.83-2,16,3.32,16,11.12,0,11.49-6.88,22.73-6.88,22.86l.5-.21c4.54-.67,6.71-5.59,6.71-5.59,3-.39,4.52-.58,7.53-.9-3.73,9.11-10.54,17.81-20.81,19.42l-1.69.28c-6.75,9-16.38,16.13-27,19C448.9,260.12,438.17,255.26,438.62,243.91Zm36.5-9.5c-6.63-3.14-9.54-9.77-9.54-16.61a20.24,20.24,0,0,1,.85-6.33c-4.27,5.93-6.65,12.76-6.65,17.68,0,5.34,2.73,8.8,9.72,7.43A15.36,15.36,0,0,0,475.12,234.42Zm13.54-24.81c0-4.65-1.85-7-5.06-6.41-5.58,1-9.16,6.72-9.16,12.19,0,4.65,2.9,8.32,9,9.87C487.15,219.28,488.66,214,488.66,209.61Z" transform="translate(-118.4 -132.05)"/><path class="cls-1" d="M522.63,238.85c.27-15.17,16.18-26.69,17.43-39.91.18-1.85-2.06-3.88-5-3.31-7.43,1.45-13.8,14.16-16.62,22.15a24.87,24.87,0,0,0-1.17,8.57v3.42c-.51,9.84-8.11,18.87-17.71,20.36-6.21,1-8.77-2.66-8.57-6.69.79-16.07,15.53-31.61,21.44-47.05,2-5.94,4.51-9.21,10.49-9.55,4.32-.24,7.81,1.33,7.81,4.61v.41s5.31-5.54,12.94-5.27c8,.28,12.45,5.94,12.27,10.39-.44,10.47-10.31,18.9-11.6,27.67-.17,1.16.83,2.07,3.32,2.21,4.81.26,9.45-8.69,9.45-8.69,3,.31,4.48.5,7.47.94-5.66,11.79-15.94,28-30.18,28.38C527.94,247.69,522.53,244.09,522.63,238.85Z" transform="translate(-118.4 -132.05)"/><path class="cls-1" d="M587.56,244.05l.33-3.46c-4.34,5.85-14.5,10.23-22.3,9-7.3-1.11-12.69-5.69-12.44-14.73.49-17.88,17.81-47.8,40.25-39.66,11.56,4.19,13.93,11.69,13.93,11.69,4.55-4.08,5.56-4,8.27-2.65,3.21,1.57,8.65,6.29,8.65,9.57l-.17.73c-7.75,4.75-17.17,13.42-17.93,22a5,5,0,0,0,3.37,4.74c3.63,1.54,7.09-2,9.64-4.55,3.05,1.57,4.58,2.4,7.65,4.16-6.93,8.47-19.45,19.82-30.89,16.23C591,255.56,587.56,250.21,587.56,244.05Zm11.54-28.22.5-2.14c0-2.87-2.12-8.8-7-9.83-9-1.88-16.7,11.36-17,19.68a7.62,7.62,0,0,0,6.16,8.13C589.22,233.55,599.11,215.83,599.11,215.83Z" transform="translate(-118.4 -132.05)"/><path class="cls-2" d="M159.33,156.75c0-3.95,225-7.14,503.06-7.14" transform="translate(-118.4 -132.05)"/></g><g id="Capa_4" data-name="Capa 4"><line class="cls-3" x1="11.01" y1="5.41" x2="0.47" y2="168.71"/><line class="cls-3" x1="525.42" y1="18.27" x2="514.88" y2="181.58"/><path class="cls-4" d="M129.29,138l158,19.24a131.52,131.52,0,0,0,36-.57l146.41-22.59a129.49,129.49,0,0,1,35.83-.51l138.3,17.3" transform="translate(-118.4 -132.05)"/><path class="cls-4" d="M118.82,300.23l158,19.24a131.52,131.52,0,0,0,36-.57L459.18,296.3a129.49,129.49,0,0,1,35.83-.51l138.3,17.3" transform="translate(-118.4 -132.05)"/><line class="cls-3" x1="19.51" y1="26.91" x2="8.97" y2="190.21"/><line class="cls-3" x1="533.92" y1="39.77" x2="523.38" y2="203.08"/><path class="cls-4" d="M137.79,159.52l158,19.24a131.52,131.52,0,0,0,36-.57l146.41-22.59a129.49,129.49,0,0,1,35.83-.51l138.3,17.3" transform="translate(-118.4 -132.05)"/><path class="cls-4" d="M127.32,321.73l158,19.24a131.52,131.52,0,0,0,36-.57L467.68,317.8a129.49,129.49,0,0,1,35.83-.51l138.3,17.3" transform="translate(-118.4 -132.05)"/></g></svg>